<svg width="32" height="32" viewBox="0 0 32 32" fill="none" xmlns="http://www.w3.org/2000/svg">
  <!-- Background circle -->
  <circle cx="16" cy="16" r="16" fill="#00B900"/>
  
  <!-- Weather cloud -->
  <path d="M8 18c0-2.76 2.24-5 5-5 .5 0 .97.09 1.42.25A4.002 4.002 0 0118 11c1.48 0 2.77.81 3.46 2.01.63-.13 1.28-.01 1.87.35.59.36 1.03.91 1.23 1.56A3.5 3.5 0 0123 22H10c-1.1 0-2-.9-2-2z" fill="white" fill-opacity="0.9"/>
  
  <!-- Head silhouette -->
  <ellipse cx="16" cy="14" rx="6" ry="7" fill="white" fill-opacity="0.3"/>
  
  <!-- Pain indicators -->
  <circle cx="13" cy="12" r="1" fill="#FF4444"/>
  <circle cx="19" cy="12" r="1" fill="#FF4444"/>
  <circle cx="16" cy="10" r="1.5" fill="#FF6666"/>
  
  <!-- Pressure waves -->
  <circle cx="16" cy="16" r="10" stroke="white" stroke-width="1" fill="none" stroke-opacity="0.3"/>
  <circle cx="16" cy="16" r="12" stroke="white" stroke-width="0.5" fill="none" stroke-opacity="0.2"/>
</svg>
